<?xml version="1.0" encoding="utf-8"?>
<svg version="1.1" id="captions-2" xmlns="http://www.w3.org/2000/svg" xmlns:xlink="http://www.w3.org/1999/xlink" width="512px" height="512px" viewBox="0 0 512 512" xml:space="preserve">
    <title>captions-2</title>
	<path d="M368.5,143.5h-225c-8.4,0-14.1,5.6-14.1,14.1v154.7c0,8.4,5.6,14.1,14.1,14.1h64.7l38,38c2.8,2.8,5.6,4.2,9.8,4.2
        c4.2,0,7-1.4,9.8-4.2l38-38h64.7c8.4,0,14.1-5.6,14.1-14.1V157.6C382.6,149.1,376.9,143.5,368.5,143.5z M207.1,286.2
        c-27.8,0-51-20.1-51-51.9c0-31.8,24-52,50.8-52c27.6,0,41.8,16.9,45.7,33l-18.3,5.8c-2.4-9.6-10.1-20.1-27.4-20.1
        c-14.9,0-30.7,10.7-30.7,33.3c0,21.2,14.9,32.9,30.9,32.9c17,0,25.3-11.1,28-20.4l18.1,5.5C249.4,267.7,235,286.2,207.1,286.2z
         M313.5,286.2c-27.8,0-51-20.1-51-51.9c0-31.8,24-52,50.8-52c27.6,0,41.8,16.9,45.7,33l-18.3,5.8c-2.4-9.6-10.1-20.1-27.4-20.1
        c-14.9,0-30.7,10.7-30.7,33.3c0,21.2,14.9,32.9,30.9,32.9c17,0,25.3-11.1,28-20.4l18.1,5.5C355.8,267.7,341.5,286.2,313.5,286.2z"/>
</svg>
