<?xml version="1.0" encoding="utf-8"?>
<svg version="1.1" id="captions-2" xmlns="http://www.w3.org/2000/svg" xmlns:xlink="http://www.w3.org/1999/xlink" width="48px" height="48px" viewBox="0 0 48 48">
    <title>captions-2</title>
    <path d="M40,10H8c-1.2,0-2,0.8-2,2v22c0,1.2,0.8,2,2,2h9.2l5.4,5.4C23,41.8,23.4,42,24,42s1-0.2,1.4-0.6l5.4-5.4H40c1.2,0,2-0.8,2-2
        V12C42,10.8,41.2,10,40,10z M17,30.3c-4,0-7.3-2.9-7.3-7.4c0-4.5,3.4-7.4,7.2-7.4c3.9,0,5.9,2.4,6.5,4.7L20.9,21
        c-0.3-1.4-1.4-2.9-3.9-2.9c-2.1,0-4.4,1.5-4.4,4.7c0,3,2.1,4.7,4.4,4.7c2.4,0,3.6-1.6,4-2.9l2.6,0.8C23.1,27.7,21,30.3,17,30.3z
         M32.2,30.3c-4,0-7.3-2.9-7.3-7.4c0-4.5,3.4-7.4,7.2-7.4c3.9,0,5.9,2.4,6.5,4.7L36,21c-0.3-1.4-1.4-2.9-3.9-2.9
        c-2.1,0-4.4,1.5-4.4,4.7c0,3,2.1,4.7,4.4,4.7c2.4,0,3.6-1.6,4-2.9l2.6,0.8C38.2,27.7,36.2,30.3,32.2,30.3z"/>
</svg>